<svg xmlns="http://www.w3.org/2000/svg" width="1120" height="980" viewBox="0 0 1120 980"><rect x="0" y="0" width="1120" height="980" rx="0" fill="#fafbfc" stroke="none"/><text x="48" y="49" font-size="17" fill="#3370ff" font-weight="600" text-anchor="start" font-family="Microsoft YaHei, Noto Sans CJK SC, sans-serif">HERMES CARD / V1</text><text x="48" y="95" font-size="34" fill="#1f2329" font-weight="650" text-anchor="start" font-family="Microsoft YaHei, Noto Sans CJK SC, sans-serif">默认折叠：正文优先，三栏常驻</text><text x="48" y="130" font-size="19" fill="#646a73" font-weight="400" text-anchor="start" font-family="Microsoft YaHei, Noto Sans CJK SC, sans-serif">保持你给的白底、细边框、右侧箭头；不新增大标题区。</text><path d="M48,154 L1072,154" stroke="#d7dae0" stroke-width="1" fill="none"/><rect x="48" y="190" width="1024" height="557" rx="12" fill="#fff" stroke="#d7dae0"/><rect x="70" y="212" width="980" height="59" rx="6" fill="#fff" stroke="#d7dae0"/><g transform="translate(86 229) scale(0.9583333333333334)" fill="none" stroke="#646a73" stroke-width="1.8" stroke-linecap="round" stroke-linejoin="round"><path d="M14 5a6 6 0 0 0-7 7L2 17l5 5 5-5a6 6 0 0 0 7-7l-4 4-5-5 4-4Z"/></g><text x="121" y="249" font-size="21" fill="#646a73" font-weight="500" text-anchor="start" font-family="Microsoft YaHei, Noto Sans CJK SC, sans-serif">工具执行 · 5m 01s · 24/24 结束 · 1 失败</text><path d="M1013 235l7 7 7-7" fill="none" stroke="#646a73" stroke-width="2.3" stroke-linecap="round"/><rect x="70" y="287" width="980" height="59" rx="6" fill="#fff" stroke="#d7dae0"/><g transform="translate(86 304) scale(0.9583333333333334)" fill="none" stroke="#646a73" stroke-width="1.8" stroke-linecap="round" stroke-linejoin="round"><rect x="2" y="3" width="20" height="14" rx="2"/><path d="M8 22h8m-4-5v5"/></g><text x="121" y="324" font-size="21" fill="#646a73" font-weight="500" text-anchor="start" font-family="Microsoft YaHei, Noto Sans CJK SC, sans-serif">GPU 1% · 66°C · VRAM 10.5/24G · RAM 15.5/126G</text><path d="M1013 310l7 7 7-7" fill="none" stroke="#646a73" stroke-width="2.3" stroke-linecap="round"/><text x="70" y="396" font-size="25" fill="#1f2329" font-weight="550" text-anchor="start" font-family="Microsoft YaHei, Noto Sans CJK SC, sans-serif">处理完成。</text><rect x="70" y="419" width="980" height="79" rx="6" fill="#f5f6f8" stroke="none"/><text x="88" y="451" font-size="21" fill="#646a73" font-weight="400" text-anchor="start" font-family="Microsoft YaHei, Noto Sans CJK SC, sans-serif">− Hermes 旧版</text><text x="88" y="483" font-size="21" fill="#1f2329" font-weight="400" text-anchor="start" font-family="Microsoft YaHei, Noto Sans CJK SC, sans-serif">＋ Hermes 更新后的版本</text><text x="70" y="534" font-size="22" fill="#1f2329" font-weight="400" text-anchor="start" font-family="Microsoft YaHei, Noto Sans CJK SC, sans-serif">依赖与服务检查完成，回答正文保持独立。</text><text x="70" y="572" font-size="20" fill="#646a73" font-weight="400" text-anchor="start" font-family="Microsoft YaHei, Noto Sans CJK SC, sans-serif">1 次工具失败已列在上方，不混同为最终回答失败。</text><rect x="70" y="608" width="980" height="59" rx="6" fill="#fff" stroke="#d7dae0"/><g transform="translate(86 625) scale(0.9583333333333334)" fill="none" stroke="#b56b08" stroke-width="1.8" stroke-linecap="round" stroke-linejoin="round"><circle cx="12" cy="12" r="10"/><path d="M7 9h10M8 9v7m4-7v7m4-7v7M7 17h10m-8-10 3-2 3 2"/></g><text x="121" y="645" font-size="21" fill="#646a73" font-weight="500" text-anchor="start" font-family="Microsoft YaHei, Noto Sans CJK SC, sans-serif">deepseek-v4.1-flash · 70.3k/1.0M（7%）</text><path d="M1013 631l7 7 7-7" fill="none" stroke="#646a73" stroke-width="2.3" stroke-linecap="round"/><rect x="70" y="685" width="117" height="37" rx="18" fill="#f5f6f8" stroke="none"/><g transform="translate(81 694) scale(0.7916666666666666)" fill="none" stroke="#646a73" stroke-width="1.8" stroke-linecap="round" stroke-linejoin="round"><rect x="3" y="6" width="18" height="15" rx="4"/><path d="M12 2v4m-5 7h2m6 0h2m-9 4h8"/></g><text x="108" y="711" font-size="19" fill="#646a73" font-weight="400" text-anchor="start" font-family="Microsoft YaHei, Noto Sans CJK SC, sans-serif">龙虾3号</text><text x="54" y="818" font-size="23" fill="#646a73" font-weight="400" text-anchor="start" font-family="Microsoft YaHei, Noto Sans CJK SC, sans-serif">收起时只显示：执行结果、设备快照、模型与上下文。</text><text x="54" y="857" font-size="23" fill="#646a73" font-weight="400" text-anchor="start" font-family="Microsoft YaHei, Noto Sans CJK SC, sans-serif">细项留在对应栏内，不再占用正文前后的额外两行摘要。</text><path d="M48,919 L1072,919" stroke="#d7dae0" stroke-width="1" fill="none"/><text x="48" y="951" font-size="17" fill="#8f959e" font-weight="400" text-anchor="start" font-family="Microsoft YaHei, Noto Sans CJK SC, sans-serif">原生 Card 2.0 设计原型 · 全部数值为合成示例 · 不是客户端截图，也未部署</text></svg>